<?xml version="1.0" encoding="UTF-8" standalone="no"?>
<!-- Created with Inkscape (http://www.inkscape.org/) -->

<svg
   xmlns:dc="http://purl.org/dc/elements/1.1/"
   xmlns:cc="http://creativecommons.org/ns#"
   xmlns:rdf="http://www.w3.org/1999/02/22-rdf-syntax-ns#"
   xmlns:svg="http://www.w3.org/2000/svg"
   xmlns="http://www.w3.org/2000/svg"
   xmlns:sodipodi="http://sodipodi.sourceforge.net/DTD/sodipodi-0.dtd"
   xmlns:inkscape="http://www.inkscape.org/namespaces/inkscape"
   width="800"
   height="800"
   id="svg2"
   version="1.1"
   inkscape:version="0.91 r13725"
   sodipodi:docname="Frege_logo_flat_colours.svg"
   inkscape:export-filename="/home/kinow/Cloud/Frege/Frege_logo_flat_colours.png"
   inkscape:export-xdpi="90"
   inkscape:export-ydpi="90">
  <defs
     id="defs4" />
  <sodipodi:namedview
     id="base"
     pagecolor="#ffffff"
     bordercolor="#666666"
     borderopacity="1.0"
     inkscape:pageopacity="0.0"
     inkscape:pageshadow="2"
     inkscape:zoom="0.70710678"
     inkscape:cx="186.42754"
     inkscape:cy="462.42455"
     inkscape:document-units="px"
     inkscape:current-layer="layer2"
     showgrid="false"
     inkscape:window-width="1600"
     inkscape:window-height="846"
     inkscape:window-x="0"
     inkscape:window-y="25"
     inkscape:window-maximized="1"
     showguides="false"
     inkscape:guide-bbox="true">
    <inkscape:grid
       type="xygrid"
       id="grid3019"
       empspacing="5"
       visible="true"
       enabled="true"
       snapvisiblegridlinesonly="true" />
    <sodipodi:guide
       orientation="0,1"
       position="324.39037,514.70458"
       id="guide3021" />
    <sodipodi:guide
       orientation="1,0"
       position="364.86619,571.91559"
       id="guide3023" />
    <sodipodi:guide
       orientation="1,0"
       position="375.56893,502.83426"
       id="guide3025" />
    <sodipodi:guide
       orientation="1,0"
       position="398.07581,522.68298"
       id="guide3027" />
    <sodipodi:guide
       orientation="1,0"
       position="407.43259,509.39393"
       id="guide3029" />
    <sodipodi:guide
       orientation="0,1"
       position="358.83374,522.68298"
       id="guide3031" />
    <sodipodi:guide
       orientation="0,1"
       position="416.65176,562.7826"
       id="guide3033" />
  </sodipodi:namedview>
  <metadata
     id="metadata7">
    <rdf:RDF>
      <cc:Work
         rdf:about="">
        <dc:format>image/svg+xml</dc:format>
        <dc:type
           rdf:resource="http://purl.org/dc/dcmitype/StillImage" />
        <dc:title></dc:title>
      </cc:Work>
    </rdf:RDF>
  </metadata>
  <g
     inkscape:groupmode="layer"
     id="layer2"
     inkscape:label="L"
     transform="translate(0,-252.36218)"
     style="display:inline">
    <path
       d="M 468.65806,699.5379 452.3663,656.92253 c -4.90518,-13.02107 -10.68613,-21.89927 -17.34287,-26.63461 -6.48179,-4.73478 -16.88712,-7.96741 -33.52682,-7.99888 -8.24454,-0.33156 -30.3266,-0.371 -30.3266,-0.371 l 0,-55.71252 57.02447,0 c 31.88278,3.8e-4 53.77725,3.88025 70.94508,16.90122 17.34277,13.02173 31.97035,34.92128 43.88283,65.69876 l 120.34917,309.46889 -94.07212,0 -58.59797,-149.15382 -61.7512,149.15382 -94.07212,0 113.77991,-258.73631"
       style="display:inline;font-style:normal;font-variant:normal;font-weight:bold;font-stretch:normal;font-size:55.31005478px;line-height:125%;font-family:rsfs10;-inkscape-font-specification:'rsfs10 Bold Italic';letter-spacing:0px;word-spacing:0px;fill:#1a1a1a;fill-opacity:1;stroke:none"
       id="path3887"
       inkscape:connector-curvature="0"
       sodipodi:nodetypes="ccccccccccccccc" />
  </g>
  <g
     inkscape:groupmode="layer"
     id="layer3"
     inkscape:label="F"
     style="display:inline"
     transform="translate(0,-252.36218)">
    <g
       transform="matrix(9.7297932,0,0,9.3925404,-2205.4027,-4793.5882)"
       style="font-style:normal;font-weight:normal;font-size:55.31005478px;line-height:125%;font-family:Sans;letter-spacing:0px;word-spacing:0px;fill:#1a1a1a;fill-opacity:1;stroke:none"
       id="text3854" />
    <g
       transform="matrix(1.1292077,0,0,0.88557667,-125.9342,-28.171304)"
       style="font-style:normal;font-weight:normal;font-size:932.08276367px;line-height:125%;font-family:Sans;letter-spacing:0px;word-spacing:0px;fill:#ef4836;fill-opacity:1;stroke:#ef4836;stroke-width:7.64774466;stroke-linecap:butt;stroke-linejoin:round;stroke-miterlimit:0.5;stroke-dashoffset:0;stroke-opacity:1"
       id="text3036">
      <path
         id="path3003"
         style="color:#000000;font-style:normal;font-variant:normal;font-weight:normal;font-stretch:normal;font-size:803.01306152px;line-height:125%;font-family:'Marko One';-inkscape-font-specification:'Marko One';text-indent:0;text-align:start;text-decoration:none;text-decoration-line:none;text-decoration-style:solid;text-decoration-color:#000000;letter-spacing:0px;word-spacing:0px;text-transform:none;direction:ltr;block-progression:tb;writing-mode:lr-tb;baseline-shift:baseline;text-anchor:start;white-space:normal;clip-rule:nonzero;display:inline;overflow:visible;visibility:visible;opacity:1;isolation:auto;mix-blend-mode:normal;color-interpolation:sRGB;color-interpolation-filters:linearRGB;solid-color:#000000;solid-opacity:1;fill:#ef4836;fill-opacity:1;fill-rule:nonzero;stroke:none;stroke-width:7.64774466;stroke-linecap:butt;stroke-linejoin:miter;stroke-miterlimit:0.5;stroke-dasharray:none;stroke-dashoffset:0;stroke-opacity:1;color-rendering:auto;image-rendering:auto;shape-rendering:auto;text-rendering:auto;enable-background:accumulate"
         d="m 444.1543,423.02539 c -27.90859,6.3e-4 -53.8306,7.97142 -77.41211,23.78125 -0.0124,0.008 -0.0248,0.0169 -0.0371,0.0254 -12.89726,8.86737 -24.3109,19.88501 -34.21289,32.99805 l -0.008,0.0117 c -9.73685,12.98287 -17.73386,29.44102 -24.10352,49.34179 -6.33886,19.54503 -9.83312,35.75483 -10.37891,48.85547 -0.50756,12.18002 -1.28017,43.83638 -2.26757,91.0293 -21.55632,0.82645 -40.98721,2.29676 -57.93165,4.53906 -0.83405,0.11042 -1.60841,0.49279 -2.20312,1.08789 -1.47541,1.47579 -1.57486,2.60981 -1.88281,3.96485 -0.30796,1.35503 -0.52085,2.93694 -0.69336,4.86914 -0.34504,3.86439 -0.50392,9.10018 -0.50391,15.82812 -1e-5,6.72828 0.1615,12.06315 0.50391,16.10352 0.3424,4.04037 0.41546,6.46244 2.03711,9.05664 0.69882,1.1177 1.924,1.79672 3.24218,1.79687 16.67196,3e-4 35.9263,1.25493 57.36719,3.5918 0.0315,84.9405 1.31596,188.51582 3.89844,311.43756 0.0348,1.675 1.15567,3.1323 2.76562,3.5957 17.70607,5.0972 38.6959,7.5976 63.00782,7.5976 24.33934,0 43.44734,-2.7239 57.52734,-8.5215 1.60648,-0.6616 2.56512,-2.323 2.33398,-4.0449 -5.0738,-37.7984 -6.01409,-140.79688 -6.02929,-305.64649 17.39902,-0.0747 31.80944,0.0871 41.88086,0.0821 11.37333,-0.006 17.91697,0.85727 21.65625,1.87576 -0.0715,-32.90155 -0.0715,-44.79793 -0.10772,-65.10678 0,0 -30.04807,-0.18908 -65.20874,-0.68893 l 0,-29.16016 c -2.2e-4,-10.56226 -3.48472,-28.91033 -10.30078,-56.17969 l -0.002,-0.008 c -0.002,-0.009 -0.004,-0.0162 -0.006,-0.0254 -6.49617,-27.0288 -9.68963,-47.1463 -9.68946,-59.84766 -1.7e-4,-12.70273 3.06404,-22.44039 8.95313,-29.74609 6.12956,-7.54024 13.90099,-11.12839 24.47266,-11.12891 10.37156,5.1e-4 17.67913,4.16696 23.40625,13.47266 0.008,0.0124 0.0155,0.0248 0.0234,0.0371 5.88522,9.31913 8.82008,19.76847 8.82032,31.67773 -2.5e-4,12.36174 -0.91201,22.57645 -2.65625,30.55079 -0.0592,0.26812 -0.0893,0.54183 -0.0899,0.8164 -4.7e-4,1.47055 0.42566,2.04971 0.76172,2.66602 0.33606,0.6163 0.71869,1.17245 1.17969,1.78711 0.92199,1.22932 2.16101,2.66325 3.7793,4.41601 0.0687,0.0744 0.14041,0.14611 0.21484,0.21485 3.93076,3.62921 9.80801,7.10294 17.83789,10.84961 0.0143,0.007 0.0286,0.0144 0.043,0.0215 8.62326,3.895 18.08194,5.82861 28.23633,5.82813 21.95973,4.7e-4 38.87611,-7.01147 49.34179,-21.1543 10.22245,-13.81409 15.25549,-31.19249 15.25586,-51.67969 -3.7e-4,-20.83513 -5.90716,-38.58887 -17.7539,-52.64453 -11.71729,-14.16049 -27.07399,-24.14545 -45.73047,-29.82422 -18.55349,-5.646 -41.63654,-8.39977 -69.33789,-8.40039 z"
         inkscape:connector-curvature="0"
         sodipodi:nodetypes="cccccccccccssscccccscscccccccccccccccccsscccccsccccc" />
    </g>
  </g>
</svg>
